<svg width="150" height="24" viewBox="0 0 150 24" fill="none" xmlns="http://www.w3.org/2000/svg">
<path d="M11.0795 23L6.45947 14.84H4.47947V23H0.279473V2.06H8.13947C9.75947 2.06 11.1395 2.35 12.2795 2.93C13.4195 3.49 14.2695 4.26 14.8295 5.24C15.4095 6.2 15.6995 7.28 15.6995 8.48C15.6995 9.86 15.2995 11.11 14.4995 12.23C13.6995 13.33 12.5095 14.09 10.9295 14.51L15.9395 23H11.0795ZM4.47947 11.69H7.98947C9.12947 11.69 9.97947 11.42 10.5395 10.88C11.0995 10.32 11.3795 9.55 11.3795 8.57C11.3795 7.61 11.0995 6.87 10.5395 6.35C9.97947 5.81 9.12947 5.54 7.98947 5.54H4.47947V11.69ZM26.7282 23.21C25.2682 23.21 23.9482 22.96 22.7682 22.46C21.6082 21.96 20.6882 21.24 20.0082 20.3C19.3282 19.36 18.9782 18.25 18.9582 16.97H23.4582C23.5182 17.83 23.8182 18.51 24.3582 19.01C24.9182 19.51 25.6782 19.76 26.6382 19.76C27.6182 19.76 28.3882 19.53 28.9482 19.07C29.5082 18.59 29.7882 17.97 29.7882 17.21C29.7882 16.59 29.5982 16.08 29.2182 15.68C28.8382 15.28 28.3582 14.97 27.7782 14.75C27.2182 14.51 26.4382 14.25 25.4382 13.97C24.0782 13.57 22.9682 13.18 22.1082 12.8C21.2682 12.4 20.5382 11.81 19.9182 11.03C19.3182 10.23 19.0182 9.17 19.0182 7.85C19.0182 6.61 19.3282 5.53 19.9482 4.61C20.5682 3.69 21.4382 2.99 22.5582 2.51C23.6782 2.01 24.9582 1.76 26.3982 1.76C28.5582 1.76 30.3082 2.29 31.6482 3.35C33.0082 4.39 33.7582 5.85 33.8982 7.73H29.2782C29.2382 7.01 28.9282 6.42 28.3482 5.96C27.7882 5.48 27.0382 5.24 26.0982 5.24C25.2782 5.24 24.6182 5.45 24.1182 5.87C23.6382 6.29 23.3982 6.9 23.3982 7.7C23.3982 8.26 23.5782 8.73 23.9382 9.11C24.3182 9.47 24.7782 9.77 25.3182 10.01C25.8782 10.23 26.6582 10.49 27.6582 10.79C29.0182 11.19 30.1282 11.59 30.9882 11.99C31.8482 12.39 32.5882 12.99 33.2082 13.79C33.8282 14.59 34.1382 15.64 34.1382 16.94C34.1382 18.06 33.8482 19.1 33.2682 20.06C32.6882 21.02 31.8382 21.79 30.7182 22.37C29.5982 22.93 28.2682 23.21 26.7282 23.21ZM45.0095 23.21C43.5495 23.21 42.2295 22.96 41.0495 22.46C39.8895 21.96 38.9695 21.24 38.2895 20.3C37.6095 19.36 37.2595 18.25 37.2395 16.97H41.7395C41.7995 17.83 42.0995 18.51 42.6395 19.01C43.1995 19.51 43.9595 19.76 44.9195 19.76C45.8995 19.76 46.6695 19.53 47.2295 19.07C47.7895 18.59 48.0695 17.97 48.0695 17.21C48.0695 16.59 47.8795 16.08 47.4995 15.68C47.1195 15.28 46.6395 14.97 46.0595 14.75C45.4995 14.51 44.7195 14.25 43.7195 13.97C42.3595 13.57 41.2495 13.18 40.3895 12.8C39.5495 12.4 38.8195 11.81 38.1995 11.03C37.5995 10.23 37.2995 9.17 37.2995 7.85C37.2995 6.61 37.6095 5.53 38.2295 4.61C38.8495 3.69 39.7195 2.99 40.8395 2.51C41.9595 2.01 43.2395 1.76 44.6795 1.76C46.8395 1.76 48.5895 2.29 49.9295 3.35C51.2895 4.39 52.0395 5.85 52.1795 7.73H47.5595C47.5195 7.01 47.2095 6.42 46.6295 5.96C46.0695 5.48 45.3195 5.24 44.3795 5.24C43.5595 5.24 42.8995 5.45 42.3995 5.87C41.9195 6.29 41.6795 6.9 41.6795 7.7C41.6795 8.26 41.8595 8.73 42.2195 9.11C42.5995 9.47 43.0595 9.77 43.5995 10.01C44.1595 10.23 44.9395 10.49 45.9395 10.79C47.2995 11.19 48.4095 11.59 49.2695 11.99C50.1295 12.39 50.8695 12.99 51.4895 13.79C52.1095 14.59 52.4195 15.64 52.4195 16.94C52.4195 18.06 52.1295 19.1 51.5495 20.06C50.9695 21.02 50.1195 21.79 48.9995 22.37C47.8795 22.93 46.5495 23.21 45.0095 23.21ZM76.1392 2.06V5.45H67.4092V10.82H74.0992V14.15H67.4092V23H63.2092V2.06H76.1392ZM94.5674 14.33C94.5674 14.93 94.5274 15.47 94.4474 15.95H82.2974C82.3974 17.15 82.8174 18.09 83.5574 18.77C84.2974 19.45 85.2074 19.79 86.2874 19.79C87.8474 19.79 88.9574 19.12 89.6174 17.78H94.1474C93.6674 19.38 92.7474 20.7 91.3874 21.74C90.0274 22.76 88.3574 23.27 86.3774 23.27C84.7774 23.27 83.3374 22.92 82.0574 22.22C80.7974 21.5 79.8074 20.49 79.0874 19.19C78.3874 17.89 78.0374 16.39 78.0374 14.69C78.0374 12.97 78.3874 11.46 79.0874 10.16C79.7874 8.86 80.7674 7.86 82.0274 7.16C83.2874 6.46 84.7374 6.11 86.3774 6.11C87.9574 6.11 89.3674 6.45 90.6074 7.13C91.8674 7.81 92.8374 8.78 93.5174 10.04C94.2174 11.28 94.5674 12.71 94.5674 14.33ZM90.2174 13.13C90.1974 12.05 89.8074 11.19 89.0474 10.55C88.2874 9.89 87.3574 9.56 86.2574 9.56C85.2174 9.56 84.3374 9.88 83.6174 10.52C82.9174 11.14 82.4874 12.01 82.3274 13.13H90.2174ZM113.083 14.33C113.083 14.93 113.043 15.47 112.963 15.95H100.813C100.913 17.15 101.333 18.09 102.073 18.77C102.813 19.45 103.723 19.79 104.803 19.79C106.363 19.79 107.473 19.12 108.133 17.78H112.663C112.183 19.38 111.263 20.7 109.903 21.74C108.543 22.76 106.873 23.27 104.893 23.27C103.293 23.27 101.853 22.92 100.573 22.22C99.313 21.5 98.323 20.49 97.603 19.19C96.903 17.89 96.553 16.39 96.553 14.69C96.553 12.97 96.903 11.46 97.603 10.16C98.303 8.86 99.283 7.86 100.543 7.16C101.803 6.46 103.253 6.11 104.893 6.11C106.473 6.11 107.883 6.45 109.123 7.13C110.383 7.81 111.353 8.78 112.033 10.04C112.733 11.28 113.083 12.71 113.083 14.33ZM108.733 13.13C108.713 12.05 108.323 11.19 107.563 10.55C106.803 9.89 105.873 9.56 104.773 9.56C103.733 9.56 102.853 9.88 102.133 10.52C101.433 11.14 101.003 12.01 100.843 13.13H108.733ZM115.069 14.63C115.069 12.95 115.399 11.46 116.059 10.16C116.739 8.86 117.659 7.86 118.819 7.16C119.979 6.46 121.269 6.11 122.689 6.11C123.769 6.11 124.799 6.35 125.779 6.83C126.759 7.29 127.539 7.91 128.119 8.69V0.8H132.379V23H128.119V20.54C127.599 21.36 126.869 22.02 125.929 22.52C124.989 23.02 123.899 23.27 122.659 23.27C121.259 23.27 119.979 22.91 118.819 22.19C117.659 21.47 116.739 20.46 116.059 19.16C115.399 17.84 115.069 16.33 115.069 14.63ZM128.149 14.69C128.149 13.67 127.949 12.8 127.549 12.08C127.149 11.34 126.609 10.78 125.929 10.4C125.249 10 124.519 9.8 123.739 9.8C122.959 9.8 122.239 9.99 121.579 10.37C120.919 10.75 120.379 11.31 119.959 12.05C119.559 12.77 119.359 13.63 119.359 14.63C119.359 15.63 119.559 16.51 119.959 17.27C120.379 18.01 120.919 18.58 121.579 18.98C122.259 19.38 122.979 19.58 123.739 19.58C124.519 19.58 125.249 19.39 125.929 19.01C126.609 18.61 127.149 18.05 127.549 17.33C127.949 16.59 128.149 15.71 128.149 14.69ZM142.841 23.27C141.481 23.27 140.261 23.03 139.181 22.55C138.101 22.05 137.241 21.38 136.601 20.54C135.981 19.7 135.641 18.77 135.581 17.75H139.811C139.891 18.39 140.201 18.92 140.741 19.34C141.301 19.76 141.991 19.97 142.811 19.97C143.611 19.97 144.231 19.81 144.671 19.49C145.131 19.17 145.361 18.76 145.361 18.26C145.361 17.72 145.081 17.32 144.521 17.06C143.981 16.78 143.111 16.48 141.911 16.16C140.671 15.86 139.651 15.55 138.851 15.23C138.071 14.91 137.391 14.42 136.811 13.76C136.251 13.1 135.971 12.21 135.971 11.09C135.971 10.17 136.231 9.33 136.751 8.57C137.291 7.81 138.051 7.21 139.031 6.77C140.031 6.33 141.201 6.11 142.541 6.11C144.521 6.11 146.101 6.61 147.281 7.61C148.461 8.59 149.111 9.92 149.231 11.6H145.211C145.151 10.94 144.871 10.42 144.371 10.04C143.891 9.64 143.241 9.44 142.421 9.44C141.661 9.44 141.071 9.58 140.651 9.86C140.251 10.14 140.051 10.53 140.051 11.03C140.051 11.59 140.331 12.02 140.891 12.32C141.451 12.6 142.321 12.89 143.501 13.19C144.701 13.49 145.691 13.8 146.471 14.12C147.251 14.44 147.921 14.94 148.481 15.62C149.061 16.28 149.361 17.16 149.381 18.26C149.381 19.22 149.111 20.08 148.571 20.84C148.051 21.6 147.291 22.2 146.291 22.64C145.311 23.06 144.161 23.27 142.841 23.27Z" fill="white"/>
</svg>
